
<svg width="28px" height="30px" viewBox="0 0 28 30" version="1.1" xmlns="http://www.w3.org/2000/svg" xmlns:xlink="http://www.w3.org/1999/xlink">
  <!-- Generator: Sketch 48.2 (47327) - http://www.bohemiancoding.com/sketch -->
  <desc>Created with Sketch.</desc>
  <defs></defs>
  <g id="Page-1" stroke="none" stroke-width="1" fill="none" fill-rule="evenodd">
    <g id="Goal-desktop-auto-02" transform="translate(-302.000000, -367.000000)" fill-rule="nonzero">
      <g id="Group-3" transform="translate(104.000000, 234.000000)">
        <g id="flags" transform="translate(14.000000, 72.000000)">
          <g id="flag" transform="translate(184.000000, 61.000000)">
            <rect id="Rectangle-path" fill="#871B1B" x="7.25" y="15.5" width="5" height="3"></rect>
            <path d="M0.75,0 C0.474,0 0.25,0.2235 0.25,0.5 L0.25,2 L0.25,29.5 C0.25,29.7765 0.474,30 0.75,30 C1.026,30 1.25,29.7765 1.25,29.5 L1.25,2 L1.25,0.5 C1.25,0.2235 1.026,0 0.75,0 Z" id="Shape" fill="#424A60"></path>
            <rect id="Rectangle-path" fill="#DD352E" x="1.25" y="2" width="11" height="14.5"></rect>
            <path d="M12.25,4.5 L12.25,16.5 L9.25,16.5 C8.1455,16.5 7.25,17.3955 7.25,18.5 C7.25,19.6045 8.1455,20.5 9.25,20.5 L11.25,20.5 L27.75,20.5 L22.25,12.5 L27.75,4.5 L12.25,4.5 Z" id="Shape" fill="#C03A2B"></path>
            <path d="M7.25,18.5 C7.25,19.6045 8.1455,20.5 9.25,20.5 L11.25,20.5 L12.25,20.5 L12.25,16.5 L9.25,16.5 C8.1455,16.5 7.25,17.3955 7.25,18.5 Z" id="Shape" fill="#B02721"></path>
          </g>
        </g>
      </g>
    </g>
  </g>
</svg>
